<svg width="2036" height="902" viewBox="0 0 2036 902" fill="none" xmlns="http://www.w3.org/2000/svg">
<rect width="2036" height="902" fill="#4455EB"/>
<g clip-path="url(#clip0_1700_2)">
<path d="M1571.48 776.608C1456.57 661.757 1456.57 475.546 1571.48 360.694L1751.07 181.201C1808.53 123.777 1901.69 123.777 1959.14 181.201C2016.59 238.627 2016.59 331.733 1959.14 389.159L1571.48 776.608Z" fill="url(#paint0_linear_1700_2)"/>
<path d="M283.16 718.633C225.704 776.059 132.549 776.059 75.0922 718.633C17.6359 661.207 17.6359 568.101 75.0922 510.677L462.75 123.227C577.663 238.077 577.663 424.288 462.75 539.14L283.16 718.633Z" fill="url(#paint1_linear_1700_2)"/>
<path d="M1207.25 902.001L1014.96 712.979C946.453 645.642 854.221 607.906 758.14 607.906H539.017C457.76 607.906 391.891 673.742 391.891 754.954C391.891 836.165 457.76 902.001 539.017 902.001H1207.25Z" fill="url(#paint2_linear_1700_2)"/>
<path d="M824.227 0L1016.52 189.022C1085.02 256.359 1177.25 294.095 1273.34 294.095H1492.46C1573.71 294.095 1639.59 228.259 1639.59 147.047C1639.59 65.8353 1573.71 3.27436e-05 1492.46 2.91937e-05L824.227 0Z" fill="url(#paint3_linear_1700_2)"/>
<path d="M470.578 114.084C585.491 -0.767477 771.801 -0.767452 886.714 114.084L1560.9 787.908C1445.99 902.759 1259.68 902.759 1144.77 787.908L470.578 114.084Z" fill="url(#paint4_linear_1700_2)"/>
</g>
<g clip-path="url(#clip1_1700_2)">
<path d="M902 0H0V902H902V0Z" fill="#4455EB"/>
<path d="M508.73 616.008L438.389 546.824C413.33 522.179 379.591 508.367 344.444 508.367H264.288C234.565 508.367 210.469 532.463 210.469 562.187C210.469 591.91 234.564 616.008 264.288 616.008H508.73Z" fill="url(#paint5_linear_1700_2)"/>
<path d="M440.264 557.758C418.073 535.934 388.195 523.703 357.071 523.703H276.915C255.66 523.703 238.43 540.934 238.43 562.188C238.43 583.443 255.66 600.674 276.915 600.674H483.898L440.264 557.758Z" fill="#5E6EF8" stroke="white" stroke-width="51"/>
<path d="M650.622 565.715L613.327 528.876C606.809 522.436 603.141 513.654 603.141 504.491V413.578C629.365 413.578 650.622 434.836 650.622 461.059V565.715Z" fill="#5E6EF8"/>
<g filter="url(#filter0_f_1700_2)">
<path d="M153.961 292.487C213.328 233.119 309.582 233.119 368.949 292.487L717.255 640.79C657.885 700.16 561.633 700.16 502.266 640.79L153.961 292.487Z" fill="#4455EB"/>
</g>
<g filter="url(#filter1_f_1700_2)">
<path d="M153.961 292.48L157.617 288.823C223.371 223.069 329.979 223.069 395.733 288.823L732.474 625.564L728.818 629.22C663.062 694.976 556.456 694.976 490.702 629.22L153.961 292.48Z" fill="#4455EB"/>
</g>
<path d="M158.47 289.674C223.754 224.39 329.601 224.39 394.885 289.674L730.775 625.564L727.973 628.372C662.686 693.653 556.839 693.653 491.555 628.372L155.664 292.48L158.47 289.674Z" fill="#4455EB" stroke="#5E6EF8" stroke-width="4"/>
<path d="M276.653 170.547L731.604 625.493L609.737 747.359L154.789 292.41L276.653 170.547Z" stroke="#2FECF8" stroke-width="2"/>
<path d="M274.461 328.527C310.512 302.805 360.907 306.119 393.26 338.473L628.141 573.352C592.089 599.075 541.695 595.76 509.341 563.407L274.461 328.527Z" fill="#5E6EF8" stroke="white" stroke-width="51"/>
<g style="mix-blend-mode:soft-light">
<path d="M248.514 334.575C247.555 333.656 246.033 333.688 245.114 334.647C244.195 335.607 244.228 337.129 245.187 338.049L248.514 334.575ZM498.559 574.16L248.514 334.575L245.187 338.049L495.23 577.634L498.559 574.16ZM649.022 572.554C607.657 613.927 540.803 614.637 498.559 574.16L495.23 577.634C539.364 619.922 609.208 619.177 652.426 575.955L649.022 572.554Z" fill="url(#paint6_linear_1700_2)"/>
</g>
<g filter="url(#filter2_f_1700_2)">
<path d="M318.102 285.797L403.334 369.665C433.696 399.542 474.586 416.286 517.183 416.286H614.258C650.29 416.286 679.503 387.075 679.503 351.042C679.503 315.008 650.29 285.797 614.258 285.797H318.102Z" fill="#4455EB"/>
</g>
<path d="M393.875 285.875L464.217 355.057C489.275 379.702 523.014 393.514 558.161 393.514H638.317C668.041 393.514 692.136 369.418 692.136 339.694C692.136 309.971 668.041 285.875 638.317 285.875H393.875Z" fill="url(#paint7_linear_1700_2)"/>
<path d="M462.338 344.126C484.528 365.951 514.407 378.182 545.53 378.182H625.686C646.943 378.182 664.172 360.951 664.172 339.696C664.172 318.442 646.943 301.211 625.686 301.211H418.703L462.338 344.126Z" fill="#5E6EF8" stroke="white" stroke-width="51"/>
<path d="M253.302 685.002C252.148 685.002 251.224 684.696 250.531 684.076C249.839 683.463 249.492 682.615 249.492 681.539V661.334C249.492 655.753 251.089 651.382 254.284 648.231C257.478 645.074 261.923 643.492 267.619 643.492C271.352 643.492 274.585 644.208 277.317 645.633C280.05 647.052 282.128 649.115 283.552 651.809C285.014 654.503 285.745 657.678 285.745 661.334V681.539C285.745 682.615 285.399 683.463 284.706 684.076C284.014 684.696 283.09 685.002 281.935 685.002C280.781 685.002 279.838 684.696 279.107 684.076C278.414 683.421 278.068 682.579 278.068 681.539V672.128H257.17V681.539C257.17 682.579 256.804 683.421 256.073 684.076C255.38 684.696 254.457 685.002 253.302 685.002ZM278.068 666.18V661.159C278.068 657.311 277.182 654.424 275.412 652.5C273.68 650.54 271.082 649.554 267.619 649.554C260.653 649.554 257.17 653.426 257.17 661.159V666.18H278.068ZM311.461 685.056C307.69 685.056 304.149 684.443 300.839 683.21C297.53 681.941 294.663 680.131 292.238 677.786C291.661 677.209 291.372 676.553 291.372 675.82C291.372 674.978 291.757 674.166 292.527 673.396C293.142 672.783 293.816 672.476 294.547 672.476C295.317 672.476 296.24 672.915 297.318 673.799C299.127 675.459 301.263 676.746 303.726 677.672C306.227 678.556 308.806 678.995 311.461 678.995C314.001 678.995 315.983 678.574 317.407 677.726C318.831 676.842 319.543 675.609 319.543 674.034C319.543 672.38 318.774 671.051 317.234 670.047C315.695 669.013 313.078 668.087 309.383 667.281C303.572 666.006 299.339 664.334 296.683 662.254C294.066 660.179 292.758 657.503 292.758 654.232C292.758 652.151 293.45 650.305 294.836 648.688C296.221 647.034 298.145 645.765 300.609 644.881C303.11 643.955 305.958 643.492 309.152 643.492C312.731 643.492 315.906 644.094 318.677 645.284C321.487 646.439 323.623 648.074 325.085 650.191C325.586 650.997 325.836 651.694 325.836 652.272C325.797 653.234 325.316 654.058 324.392 654.749C323.892 655.098 323.315 655.272 322.661 655.272C321.468 655.272 320.486 654.809 319.717 653.883C318.6 652.536 317.1 651.478 315.214 650.708C313.366 649.938 311.346 649.554 309.152 649.554C306.42 649.554 304.284 649.981 302.744 650.828C301.244 651.634 300.493 652.771 300.493 654.232C300.493 655.693 301.224 656.908 302.687 657.87C304.188 658.79 306.766 659.68 310.422 660.522C314.463 661.484 317.715 662.585 320.178 663.817C322.641 665.008 324.431 666.433 325.547 668.087C326.702 669.74 327.279 671.725 327.279 674.034C327.279 676.229 326.625 678.171 325.316 679.861C324.008 681.52 322.16 682.807 319.774 683.733C317.388 684.617 314.617 685.056 311.461 685.056ZM336.681 685.002C335.526 685.002 334.603 684.696 333.91 684.076C333.217 683.463 332.871 682.615 332.871 681.539V661.334C332.871 655.753 334.468 651.382 337.662 648.231C340.856 645.074 345.301 643.492 350.997 643.492C354.73 643.492 357.963 644.208 360.696 645.633C363.428 647.052 365.506 649.115 366.93 651.809C368.393 654.503 369.124 657.678 369.124 661.334V681.539C369.124 682.615 368.777 683.463 368.085 684.076C367.392 684.696 366.468 685.002 365.314 685.002C364.159 685.002 363.216 684.696 362.485 684.076C361.792 683.421 361.446 682.579 361.446 681.539V672.128H340.548V681.539C340.548 682.579 340.183 683.421 339.452 684.076C338.759 684.696 337.835 685.002 336.681 685.002ZM361.446 666.18V661.159C361.446 657.311 360.561 654.424 358.791 652.5C357.059 650.54 354.461 649.554 350.997 649.554C344.031 649.554 340.548 653.426 340.548 661.159V666.18H361.446ZM395.937 685.056C391.588 685.056 387.816 684.233 384.622 682.579C381.428 680.919 378.984 678.538 377.291 675.417C375.597 672.302 374.751 668.604 374.751 664.334C374.751 660.065 375.597 656.367 377.291 653.252C378.984 650.095 381.409 647.689 384.564 646.036C387.759 644.34 391.511 643.492 395.821 643.492C399.4 643.492 402.71 644.112 405.75 645.344C408.791 646.571 411.042 648.207 412.505 650.251C412.966 650.865 413.197 651.502 413.197 652.151C413.197 653.114 412.678 653.979 411.639 654.749C411.177 655.098 410.6 655.272 409.907 655.272C409.33 655.272 408.752 655.158 408.175 654.924C407.598 654.653 407.117 654.292 406.732 653.829C405.423 652.326 403.903 651.249 402.171 650.594C400.439 649.902 398.323 649.554 395.821 649.554C391.626 649.554 388.355 650.865 386.007 653.48C383.66 656.06 382.486 659.68 382.486 664.334C382.486 668.953 383.66 672.549 386.007 675.128C388.394 677.708 391.703 678.995 395.937 678.995C399.439 678.995 402.171 678.321 404.134 676.974C406.135 675.627 407.136 673.763 407.136 671.376V670.107C407.136 669.301 406.944 668.742 406.559 668.435C406.212 668.123 405.597 667.972 404.711 667.972H397.149C396.071 667.972 395.225 667.72 394.609 667.221C393.993 666.68 393.685 665.952 393.685 665.026C393.685 664.064 393.974 663.336 394.551 662.831C395.167 662.296 396.033 662.025 397.149 662.025H408.348C410.58 662.025 412.216 662.506 413.255 663.468C414.294 664.395 414.814 665.874 414.814 667.912V670.167C414.814 673.09 414.025 675.688 412.447 677.961C410.869 680.192 408.637 681.941 405.75 683.21C402.903 684.443 399.631 685.056 395.937 685.056ZM426.252 685.056C425.097 685.056 424.174 684.75 423.481 684.136C422.788 683.517 422.442 682.675 422.442 681.593V646.956C422.442 645.879 422.788 645.032 423.481 644.418C424.174 643.805 425.097 643.492 426.252 643.492C427.368 643.492 428.291 643.805 429.023 644.418C429.754 645.032 430.119 645.879 430.119 646.956V681.593C430.119 682.675 429.754 683.517 429.023 684.136C428.291 684.75 427.368 685.056 426.252 685.056Z" fill="white"/>
<path d="M276.762 166.567L272.844 170.484L276.762 174.402L280.679 170.484L276.762 166.567Z" fill="#2FECF8"/>
<path d="M730.769 621.34L726.852 625.258L730.769 629.176L734.687 625.258L730.769 621.34Z" fill="#2FECF8"/>
<path d="M154.855 288.801L150.938 292.719L154.855 296.637L158.773 292.719L154.855 288.801Z" fill="#2FECF8"/>
<path d="M609.457 742.371L605.539 746.289L609.457 750.207L613.375 746.289L609.457 742.371Z" fill="#2FECF8"/>
<path d="M470.448 430.513L414.32 486.641L415.596 487.916L471.723 431.789L470.448 430.513Z" fill="#00F0FF"/>
<path d="M471.651 486.846L415.523 430.719L414.248 431.994L470.375 488.122L471.651 486.846Z" fill="#00F0FF"/>
<path d="M394.172 459.281H492.189" stroke="#00F0FF" stroke-linecap="round" stroke-dasharray="2 2"/>
<path d="M442.883 508.588V410.57" stroke="#00F0FF" stroke-linecap="round" stroke-dasharray="2 2"/>
<path d="M443.787 455.977H441.983C440.655 455.977 439.578 457.053 439.578 458.382V460.186C439.578 461.514 440.655 462.591 441.983 462.591H443.787C445.116 462.591 446.193 461.514 446.193 460.186V458.382C446.193 457.053 445.116 455.977 443.787 455.977Z" fill="#2FECF8"/>
<path d="M446.793 625.547L305.479 715.446H230.914V625.547H446.793Z" fill="url(#paint8_linear_1700_2)"/>
<path d="M395.821 642.898C399.47 642.898 402.857 643.524 405.976 644.787C409.085 646.049 411.439 647.739 412.985 649.892C413.511 650.589 413.798 651.353 413.798 652.159C413.798 653.374 413.131 654.396 411.996 655.238C411.411 655.677 410.701 655.875 409.906 655.875C409.247 655.875 408.594 655.743 407.951 655.484C407.941 655.484 407.93 655.478 407.92 655.472C407.272 655.172 406.721 654.757 406.278 654.228L406.041 653.963C404.849 652.67 403.489 651.738 401.958 651.161C401.955 651.161 401.951 651.161 401.947 651.155C400.306 650.499 398.27 650.163 395.821 650.163C391.761 650.163 388.666 651.419 386.455 653.885L386.452 653.891C384.235 656.326 383.087 659.778 383.087 664.336C383.087 668.852 384.233 672.292 386.448 674.727L386.662 674.95C388.894 677.235 391.962 678.401 395.937 678.401C399.371 678.401 401.967 677.74 403.793 676.483H403.798C405.635 675.244 406.534 673.566 406.534 671.384V670.109C406.534 669.369 406.354 669.044 406.183 668.906C406.174 668.9 406.166 668.894 406.159 668.888C405.986 668.732 405.566 668.575 404.711 668.575H397.148C395.982 668.575 394.985 668.305 394.229 667.691C394.223 667.685 394.218 667.679 394.213 667.679C393.448 667.006 393.084 666.104 393.084 665.028C393.084 663.945 393.415 663.025 394.155 662.382L394.3 662.261C395.044 661.684 396.015 661.426 397.148 661.426H408.347C410.648 661.426 412.464 661.919 413.663 663.031H413.663C414.874 664.113 415.414 665.791 415.414 667.92V670.169C415.414 673.206 414.592 675.93 412.94 678.305L412.937 678.311C411.287 680.644 408.963 682.46 405.992 683.765H405.989C403.053 685.034 399.697 685.665 395.937 685.665C391.511 685.665 387.641 684.823 384.345 683.116C381.046 681.402 378.514 678.93 376.762 675.707C375.012 672.49 374.148 668.69 374.148 664.336C374.148 659.988 375.011 656.188 376.76 652.971C378.51 649.712 381.022 647.216 384.285 645.508C387.58 643.758 391.432 642.898 395.821 642.898ZM426.251 642.898C427.484 642.898 428.552 643.241 429.409 643.963C430.294 644.708 430.72 645.731 430.72 646.963V681.6C430.72 682.827 430.294 683.855 429.409 684.601C428.552 685.322 427.484 685.665 426.251 685.665C424.987 685.665 423.908 685.322 423.08 684.589C422.238 683.837 421.84 682.815 421.84 681.6V646.963C421.84 645.743 422.238 644.721 423.08 643.975C423.908 643.235 424.987 642.898 426.251 642.898Z" fill="#4455EB"/>
<path d="M386.452 653.891L386.455 653.885C388.666 651.419 391.761 650.163 395.821 650.163C398.27 650.163 400.306 650.499 401.947 651.155C401.951 651.161 401.955 651.161 401.958 651.161C403.489 651.738 404.849 652.67 406.041 653.963L406.278 654.228C406.721 654.757 407.272 655.172 407.92 655.472C407.93 655.478 407.941 655.484 407.951 655.484C408.594 655.743 409.247 655.875 409.906 655.875C410.701 655.875 411.411 655.677 411.996 655.238C413.131 654.396 413.798 653.374 413.798 652.159C413.798 651.353 413.511 650.589 412.985 649.892C411.439 647.739 409.085 646.049 405.976 644.787C402.857 643.524 399.47 642.898 395.821 642.898C391.432 642.898 387.58 643.758 384.285 645.508C381.022 647.216 378.51 649.712 376.76 652.971C375.011 656.188 374.148 659.988 374.148 664.336C374.148 668.69 375.012 672.49 376.762 675.707C378.514 678.93 381.046 681.402 384.345 683.116C387.641 684.823 391.511 685.665 395.937 685.665C399.697 685.665 403.053 685.034 405.989 683.765H405.992C408.963 682.46 411.287 680.644 412.937 678.311L412.94 678.305C414.592 675.93 415.414 673.206 415.414 670.169V667.92C415.414 665.791 414.874 664.113 413.663 663.031H413.663C412.464 661.919 410.648 661.426 408.347 661.426H397.148C396.015 661.426 395.044 661.684 394.3 662.261L394.155 662.382C393.415 663.025 393.084 663.945 393.084 665.028C393.084 666.104 393.448 667.006 394.213 667.679C394.218 667.679 394.223 667.685 394.229 667.691C394.985 668.305 395.982 668.575 397.148 668.575H404.711C405.566 668.575 405.986 668.732 406.159 668.888C406.166 668.894 406.174 668.9 406.183 668.906C406.354 669.044 406.534 669.369 406.534 670.109V671.384C406.534 673.566 405.635 675.244 403.798 676.483H403.793C401.967 677.74 399.371 678.401 395.937 678.401C391.962 678.401 388.894 677.235 386.662 674.95L386.448 674.727C384.233 672.292 383.087 668.852 383.087 664.336C383.087 659.778 384.235 656.326 386.452 653.891ZM386.452 653.891L386.007 653.488M426.251 642.898C427.484 642.898 428.552 643.241 429.409 643.963C430.294 644.708 430.72 645.731 430.72 646.963V681.6C430.72 682.827 430.294 683.855 429.409 684.601C428.552 685.322 427.484 685.665 426.251 685.665C424.987 685.665 423.908 685.322 423.08 684.589C422.238 683.837 421.84 682.815 421.84 681.6V646.963C421.84 645.743 422.238 644.721 423.08 643.975C423.908 643.235 424.987 642.898 426.251 642.898Z" stroke="#2FECF8" stroke-width="2" stroke-linejoin="round"/>
</g>
<g filter="url(#filter3_f_1700_2)">
<path d="M685.76 497.872C688.256 497.872 690.56 498.496 692.672 499.744C694.784 500.96 696.448 502.624 697.664 504.736C698.912 506.848 699.536 509.152 699.536 511.648V518.944C699.536 521.44 698.912 523.744 697.664 525.856C696.448 527.968 694.784 529.648 692.672 530.896C690.56 532.112 688.256 532.72 685.76 532.72C683.264 532.72 680.96 532.112 678.848 530.896C676.736 529.648 675.056 527.968 673.808 525.856C672.592 523.744 671.984 521.44 671.984 518.944V511.648C671.984 509.152 672.592 506.848 673.808 504.736C675.056 502.624 676.736 500.96 678.848 499.744C680.96 498.496 683.264 497.872 685.76 497.872ZM673.76 518.944C673.76 521.12 674.288 523.136 675.344 524.992C676.432 526.816 677.888 528.272 679.712 529.36C681.568 530.416 683.584 530.944 685.76 530.944C687.936 530.944 689.936 530.416 691.76 529.36C693.616 528.272 695.072 526.816 696.128 524.992C697.216 523.136 697.76 521.12 697.76 518.944V511.648C697.76 509.472 697.216 507.472 696.128 505.648C695.072 503.792 693.616 502.336 691.76 501.28C689.936 500.192 687.936 499.648 685.76 499.648C683.584 499.648 681.568 500.192 679.712 501.28C677.888 502.336 676.432 503.792 675.344 505.648C674.288 507.472 673.76 509.472 673.76 511.648V518.944ZM710.203 498.592H735.115V500.368H711.979V514.384H730.699V516.16H711.979V532H710.203V498.592ZM770.311 498.592V500.368H757.687V532H755.959V500.368H743.335V498.592H770.311ZM808.194 498.592L799.218 532H797.346L792.354 513.424L787.362 532H785.49L776.514 498.592H778.338L786.402 528.688L791.442 510.016L788.37 498.592H790.194L793.266 510.016L798.306 528.688L806.37 498.592H808.194ZM826.973 498.592H828.845L842.573 532H840.653L836.141 520.96H819.677L815.117 532H813.245L826.973 498.592ZM820.397 519.232H835.421L827.885 500.896L820.397 519.232ZM870.664 499.696C872.584 500.592 874.088 501.92 875.176 503.68C876.296 505.44 876.856 507.392 876.856 509.536C876.856 512.032 876.088 514.272 874.552 516.256C873.048 518.208 871.112 519.504 868.744 520.144L877.24 532H875.128L866.92 520.48L865.384 520.528H853.336V532H851.56V498.592H864.28C865.688 498.592 866.888 498.688 867.88 498.88C868.904 499.04 869.832 499.312 870.664 499.696ZM865.864 518.752C867.528 518.752 869.064 518.336 870.472 517.504C871.88 516.672 873 515.552 873.832 514.144C874.664 512.736 875.08 511.2 875.08 509.536C875.08 507.68 874.584 506 873.592 504.496C872.632 502.992 871.288 501.872 869.56 501.136C868.312 500.624 866.552 500.368 864.28 500.368H853.336V518.752H865.864ZM887.428 498.592H910.948V500.368H889.204V513.904H908.116V515.68H889.204V530.224H910.948V532H887.428V498.592ZM710.203 546.592H735.115V548.368H711.979V562.384H730.699V564.16H711.979V580H710.203V546.592ZM756.823 545.872C759.319 545.872 761.623 546.496 763.734 547.744C765.847 548.96 767.511 550.624 768.727 552.736C769.975 554.848 770.599 557.152 770.599 559.648V566.944C770.599 569.44 769.975 571.744 768.727 573.856C767.511 575.968 765.847 577.648 763.734 578.896C761.623 580.112 759.319 580.72 756.823 580.72C754.327 580.72 752.023 580.112 749.911 578.896C747.799 577.648 746.119 575.968 744.871 573.856C743.655 571.744 743.047 569.44 743.047 566.944V559.648C743.047 557.152 743.655 554.848 744.871 552.736C746.119 550.624 747.799 548.96 749.911 547.744C752.023 546.496 754.327 545.872 756.823 545.872ZM744.823 566.944C744.823 569.12 745.351 571.136 746.407 572.992C747.495 574.816 748.951 576.272 750.775 577.36C752.631 578.416 754.647 578.944 756.823 578.944C758.999 578.944 760.999 578.416 762.823 577.36C764.679 576.272 766.135 574.816 767.191 572.992C768.279 571.136 768.823 569.12 768.823 566.944V559.648C768.823 557.472 768.279 555.472 767.191 553.648C766.135 551.792 764.679 550.336 762.823 549.28C760.999 548.192 758.999 547.648 756.823 547.648C754.647 547.648 752.631 548.192 750.775 549.28C748.951 550.336 747.495 551.792 746.407 553.648C745.351 555.472 744.823 557.472 744.823 559.648V566.944ZM778.866 546.592H780.642V567.232C780.642 569.344 781.17 571.296 782.226 573.088C783.282 574.88 784.706 576.304 786.498 577.36C788.29 578.416 790.242 578.944 792.354 578.944C794.466 578.944 796.418 578.416 798.21 577.36C800.002 576.304 801.426 574.88 802.482 573.088C803.538 571.296 804.066 569.344 804.066 567.232V546.592H805.842V567.232C805.842 569.664 805.234 571.92 804.018 574C802.802 576.048 801.154 577.68 799.074 578.896C797.026 580.112 794.786 580.72 792.354 580.72C789.922 580.72 787.666 580.112 785.586 578.896C783.538 577.68 781.906 576.048 780.69 574C779.474 571.92 778.866 569.664 778.866 567.232V546.592ZM814.829 580V546.592H816.701L840.029 569.248V546.592H841.805V580H840.029V571.744L816.605 548.896V580H814.829ZM863.08 546.592C865.512 546.592 867.752 547.2 869.8 548.416C871.88 549.632 873.528 551.28 874.744 553.36C875.96 555.408 876.568 557.648 876.568 560.08V566.512C876.568 568.944 875.96 571.2 874.744 573.28C873.528 575.328 871.88 576.96 869.8 578.176C867.752 579.392 865.512 580 863.08 580H850.744V546.592H863.08ZM874.792 560.08C874.792 557.968 874.264 556.016 873.208 554.224C872.152 552.432 870.712 551.008 868.888 549.952C867.096 548.896 865.144 548.368 863.032 548.368H852.52V578.224H863.032C865.144 578.224 867.096 577.696 868.888 576.64C870.712 575.584 872.152 574.16 873.208 572.368C874.264 570.576 874.792 568.624 874.792 566.512V560.08ZM898.036 546.592H899.908L913.636 580H911.716L907.204 568.96H890.74L886.18 580H884.308L898.036 546.592ZM891.46 567.232H906.484L898.948 548.896L891.46 567.232ZM947.967 546.592V548.368H935.343V580H933.615V548.368H920.991V546.592H947.967ZM980.858 546.592V548.368H970.874V578.224H980.858V580H959.21V578.224H969.146V548.368H959.21V546.592H980.858ZM1005.54 545.872C1008.04 545.872 1010.34 546.496 1012.45 547.744C1014.57 548.96 1016.23 550.624 1017.45 552.736C1018.69 554.848 1019.32 557.152 1019.32 559.648V566.944C1019.32 569.44 1018.69 571.744 1017.45 573.856C1016.23 575.968 1014.57 577.648 1012.45 578.896C1010.34 580.112 1008.04 580.72 1005.54 580.72C1003.05 580.72 1000.74 580.112 998.629 578.896C996.517 577.648 994.837 575.968 993.589 573.856C992.373 571.744 991.765 569.44 991.765 566.944V559.648C991.765 557.152 992.373 554.848 993.589 552.736C994.837 550.624 996.517 548.96 998.629 547.744C1000.74 546.496 1003.05 545.872 1005.54 545.872ZM993.541 566.944C993.541 569.12 994.069 571.136 995.125 572.992C996.213 574.816 997.669 576.272 999.493 577.36C1001.35 578.416 1003.37 578.944 1005.54 578.944C1007.72 578.944 1009.72 578.416 1011.54 577.36C1013.4 576.272 1014.85 574.816 1015.91 572.992C1017 571.136 1017.54 569.12 1017.54 566.944V559.648C1017.54 557.472 1017 555.472 1015.91 553.648C1014.85 551.792 1013.4 550.336 1011.54 549.28C1009.72 548.192 1007.72 547.648 1005.54 547.648C1003.37 547.648 1001.35 548.192 999.493 549.28C997.669 550.336 996.213 551.792 995.125 553.648C994.069 555.472 993.541 557.472 993.541 559.648V566.944ZM1028.02 580V546.592H1029.89L1053.22 569.248V546.592H1054.99V580H1053.22V571.744L1029.79 548.896V580H1028.02Z" fill="white" fill-opacity="0.46"/>
</g>
<path d="M685.76 497.872C688.256 497.872 690.56 498.496 692.672 499.744C694.784 500.96 696.448 502.624 697.664 504.736C698.912 506.848 699.536 509.152 699.536 511.648V518.944C699.536 521.44 698.912 523.744 697.664 525.856C696.448 527.968 694.784 529.648 692.672 530.896C690.56 532.112 688.256 532.72 685.76 532.72C683.264 532.72 680.96 532.112 678.848 530.896C676.736 529.648 675.056 527.968 673.808 525.856C672.592 523.744 671.984 521.44 671.984 518.944V511.648C671.984 509.152 672.592 506.848 673.808 504.736C675.056 502.624 676.736 500.96 678.848 499.744C680.96 498.496 683.264 497.872 685.76 497.872ZM673.76 518.944C673.76 521.12 674.288 523.136 675.344 524.992C676.432 526.816 677.888 528.272 679.712 529.36C681.568 530.416 683.584 530.944 685.76 530.944C687.936 530.944 689.936 530.416 691.76 529.36C693.616 528.272 695.072 526.816 696.128 524.992C697.216 523.136 697.76 521.12 697.76 518.944V511.648C697.76 509.472 697.216 507.472 696.128 505.648C695.072 503.792 693.616 502.336 691.76 501.28C689.936 500.192 687.936 499.648 685.76 499.648C683.584 499.648 681.568 500.192 679.712 501.28C677.888 502.336 676.432 503.792 675.344 505.648C674.288 507.472 673.76 509.472 673.76 511.648V518.944ZM710.203 498.592H735.115V500.368H711.979V514.384H730.699V516.16H711.979V532H710.203V498.592ZM770.311 498.592V500.368H757.687V532H755.959V500.368H743.335V498.592H770.311ZM808.194 498.592L799.218 532H797.346L792.354 513.424L787.362 532H785.49L776.514 498.592H778.338L786.402 528.688L791.442 510.016L788.37 498.592H790.194L793.266 510.016L798.306 528.688L806.37 498.592H808.194ZM826.973 498.592H828.845L842.573 532H840.653L836.141 520.96H819.677L815.117 532H813.245L826.973 498.592ZM820.397 519.232H835.421L827.885 500.896L820.397 519.232ZM870.664 499.696C872.584 500.592 874.088 501.92 875.176 503.68C876.296 505.44 876.856 507.392 876.856 509.536C876.856 512.032 876.088 514.272 874.552 516.256C873.048 518.208 871.112 519.504 868.744 520.144L877.24 532H875.128L866.92 520.48L865.384 520.528H853.336V532H851.56V498.592H864.28C865.688 498.592 866.888 498.688 867.88 498.88C868.904 499.04 869.832 499.312 870.664 499.696ZM865.864 518.752C867.528 518.752 869.064 518.336 870.472 517.504C871.88 516.672 873 515.552 873.832 514.144C874.664 512.736 875.08 511.2 875.08 509.536C875.08 507.68 874.584 506 873.592 504.496C872.632 502.992 871.288 501.872 869.56 501.136C868.312 500.624 866.552 500.368 864.28 500.368H853.336V518.752H865.864ZM887.428 498.592H910.948V500.368H889.204V513.904H908.116V515.68H889.204V530.224H910.948V532H887.428V498.592ZM710.203 546.592H735.115V548.368H711.979V562.384H730.699V564.16H711.979V580H710.203V546.592ZM756.823 545.872C759.319 545.872 761.623 546.496 763.734 547.744C765.847 548.96 767.511 550.624 768.727 552.736C769.975 554.848 770.599 557.152 770.599 559.648V566.944C770.599 569.44 769.975 571.744 768.727 573.856C767.511 575.968 765.847 577.648 763.734 578.896C761.623 580.112 759.319 580.72 756.823 580.72C754.327 580.72 752.023 580.112 749.911 578.896C747.799 577.648 746.119 575.968 744.871 573.856C743.655 571.744 743.047 569.44 743.047 566.944V559.648C743.047 557.152 743.655 554.848 744.871 552.736C746.119 550.624 747.799 548.96 749.911 547.744C752.023 546.496 754.327 545.872 756.823 545.872ZM744.823 566.944C744.823 569.12 745.351 571.136 746.407 572.992C747.495 574.816 748.951 576.272 750.775 577.36C752.631 578.416 754.647 578.944 756.823 578.944C758.999 578.944 760.999 578.416 762.823 577.36C764.679 576.272 766.135 574.816 767.191 572.992C768.279 571.136 768.823 569.12 768.823 566.944V559.648C768.823 557.472 768.279 555.472 767.191 553.648C766.135 551.792 764.679 550.336 762.823 549.28C760.999 548.192 758.999 547.648 756.823 547.648C754.647 547.648 752.631 548.192 750.775 549.28C748.951 550.336 747.495 551.792 746.407 553.648C745.351 555.472 744.823 557.472 744.823 559.648V566.944ZM778.866 546.592H780.642V567.232C780.642 569.344 781.17 571.296 782.226 573.088C783.282 574.88 784.706 576.304 786.498 577.36C788.29 578.416 790.242 578.944 792.354 578.944C794.466 578.944 796.418 578.416 798.21 577.36C800.002 576.304 801.426 574.88 802.482 573.088C803.538 571.296 804.066 569.344 804.066 567.232V546.592H805.842V567.232C805.842 569.664 805.234 571.92 804.018 574C802.802 576.048 801.154 577.68 799.074 578.896C797.026 580.112 794.786 580.72 792.354 580.72C789.922 580.72 787.666 580.112 785.586 578.896C783.538 577.68 781.906 576.048 780.69 574C779.474 571.92 778.866 569.664 778.866 567.232V546.592ZM814.829 580V546.592H816.701L840.029 569.248V546.592H841.805V580H840.029V571.744L816.605 548.896V580H814.829ZM863.08 546.592C865.512 546.592 867.752 547.2 869.8 548.416C871.88 549.632 873.528 551.28 874.744 553.36C875.96 555.408 876.568 557.648 876.568 560.08V566.512C876.568 568.944 875.96 571.2 874.744 573.28C873.528 575.328 871.88 576.96 869.8 578.176C867.752 579.392 865.512 580 863.08 580H850.744V546.592H863.08ZM874.792 560.08C874.792 557.968 874.264 556.016 873.208 554.224C872.152 552.432 870.712 551.008 868.888 549.952C867.096 548.896 865.144 548.368 863.032 548.368H852.52V578.224H863.032C865.144 578.224 867.096 577.696 868.888 576.64C870.712 575.584 872.152 574.16 873.208 572.368C874.264 570.576 874.792 568.624 874.792 566.512V560.08ZM898.036 546.592H899.908L913.636 580H911.716L907.204 568.96H890.74L886.18 580H884.308L898.036 546.592ZM891.46 567.232H906.484L898.948 548.896L891.46 567.232ZM947.967 546.592V548.368H935.343V580H933.615V548.368H920.991V546.592H947.967ZM980.858 546.592V548.368H970.874V578.224H980.858V580H959.21V578.224H969.146V548.368H959.21V546.592H980.858ZM1005.54 545.872C1008.04 545.872 1010.34 546.496 1012.45 547.744C1014.57 548.96 1016.23 550.624 1017.45 552.736C1018.69 554.848 1019.32 557.152 1019.32 559.648V566.944C1019.32 569.44 1018.69 571.744 1017.45 573.856C1016.23 575.968 1014.57 577.648 1012.45 578.896C1010.34 580.112 1008.04 580.72 1005.54 580.72C1003.05 580.72 1000.74 580.112 998.629 578.896C996.517 577.648 994.837 575.968 993.589 573.856C992.373 571.744 991.765 569.44 991.765 566.944V559.648C991.765 557.152 992.373 554.848 993.589 552.736C994.837 550.624 996.517 548.96 998.629 547.744C1000.74 546.496 1003.05 545.872 1005.54 545.872ZM993.541 566.944C993.541 569.12 994.069 571.136 995.125 572.992C996.213 574.816 997.669 576.272 999.493 577.36C1001.35 578.416 1003.37 578.944 1005.54 578.944C1007.72 578.944 1009.72 578.416 1011.54 577.36C1013.4 576.272 1014.85 574.816 1015.91 572.992C1017 571.136 1017.54 569.12 1017.54 566.944V559.648C1017.54 557.472 1017 555.472 1015.91 553.648C1014.85 551.792 1013.4 550.336 1011.54 549.28C1009.72 548.192 1007.72 547.648 1005.54 547.648C1003.37 547.648 1001.35 548.192 999.493 549.28C997.669 550.336 996.213 551.792 995.125 553.648C994.069 555.472 993.541 557.472 993.541 559.648V566.944ZM1028.02 580V546.592H1029.89L1053.22 569.248V546.592H1054.99V580H1053.22V571.744L1029.79 548.896V580H1028.02Z" fill="url(#paint9_linear_1700_2)"/>
<path d="M935.718 496.78C936.774 496.78 937.603 497.066 938.204 497.638C938.82 498.21 939.128 499.002 939.128 500.014C939.128 500.879 938.835 501.752 938.248 502.632C937.661 503.512 936.759 504.531 935.542 505.69L934.2 506.966L939.414 506.944V508H932.726L932.55 507.142L934.046 505.69C934.75 504.986 935.337 504.377 935.806 503.864C936.29 503.336 936.679 502.859 936.972 502.434C937.28 502.009 937.493 501.613 937.61 501.246C937.742 500.865 937.808 500.469 937.808 500.058C937.808 499.369 937.617 498.833 937.236 498.452C936.869 498.071 936.349 497.88 935.674 497.88C935.234 497.88 934.816 497.961 934.42 498.122C934.039 498.269 933.657 498.496 933.276 498.804L932.704 497.88C933.613 497.147 934.618 496.78 935.718 496.78ZM947.907 497.858C947.071 497.858 946.374 498.232 945.817 498.98C945.274 499.728 945.003 500.887 945.003 502.456C945.003 503.263 945.076 503.959 945.223 504.546C945.384 505.118 945.597 505.595 945.861 505.976C946.125 506.343 946.44 506.614 946.807 506.79C947.174 506.966 947.57 507.054 947.995 507.054C948.831 507.054 949.52 506.68 950.063 505.932C950.606 505.184 950.877 504.033 950.877 502.478C950.877 500.865 950.591 499.691 950.019 498.958C949.462 498.225 948.758 497.858 947.907 497.858ZM947.995 496.78C948.611 496.78 949.176 496.905 949.689 497.154C950.202 497.389 950.642 497.741 951.009 498.21C951.39 498.679 951.684 499.273 951.889 499.992C952.094 500.696 952.197 501.517 952.197 502.456C952.197 503.395 952.087 504.223 951.867 504.942C951.662 505.646 951.368 506.233 950.987 506.702C950.62 507.171 950.173 507.531 949.645 507.78C949.132 508.015 948.567 508.132 947.951 508.132C947.335 508.132 946.763 508.015 946.235 507.78C945.707 507.545 945.252 507.193 944.871 506.724C944.504 506.24 944.211 505.646 943.991 504.942C943.786 504.238 943.683 503.409 943.683 502.456C943.683 501.547 943.786 500.74 943.991 500.036C944.211 499.332 944.512 498.738 944.893 498.254C945.274 497.77 945.729 497.403 946.257 497.154C946.785 496.905 947.364 496.78 947.995 496.78ZM959.099 496.78C960.155 496.78 960.984 497.066 961.585 497.638C962.201 498.21 962.509 499.002 962.509 500.014C962.509 500.879 962.216 501.752 961.629 502.632C961.042 503.512 960.14 504.531 958.923 505.69L957.581 506.966L962.795 506.944V508H956.107L955.931 507.142L957.427 505.69C958.131 504.986 958.718 504.377 959.187 503.864C959.671 503.336 960.06 502.859 960.353 502.434C960.661 502.009 960.874 501.613 960.991 501.246C961.123 500.865 961.189 500.469 961.189 500.058C961.189 499.369 960.998 498.833 960.617 498.452C960.25 498.071 959.73 497.88 959.055 497.88C958.615 497.88 958.197 497.961 957.801 498.122C957.42 498.269 957.038 498.496 956.657 498.804L956.085 497.88C956.994 497.147 957.999 496.78 959.099 496.78ZM969.831 496.78C970.829 496.78 971.628 497.044 972.229 497.572C972.845 498.1 973.153 498.789 973.153 499.64C973.153 500.329 972.97 500.901 972.603 501.356C972.237 501.796 971.797 502.111 971.283 502.302C971.943 502.463 972.479 502.786 972.889 503.27C973.315 503.754 973.527 504.333 973.527 505.008C973.527 505.976 973.175 506.739 972.471 507.296C971.782 507.853 970.829 508.132 969.611 508.132C969.098 508.132 968.585 508.081 968.071 507.978C967.558 507.875 967.125 507.736 966.773 507.56L967.103 506.526C967.485 506.687 967.866 506.819 968.247 506.922C968.643 507.01 969.091 507.054 969.589 507.054C970.337 507.054 970.961 506.878 971.459 506.526C971.958 506.159 972.207 505.639 972.207 504.964C972.207 504.319 971.973 503.82 971.503 503.468C971.034 503.101 970.381 502.918 969.545 502.918H968.203V501.884H969.237C970.044 501.884 970.682 501.693 971.151 501.312C971.621 500.931 971.855 500.41 971.855 499.75C971.855 499.193 971.665 498.738 971.283 498.386C970.917 498.034 970.403 497.858 969.743 497.858C969.303 497.858 968.907 497.909 968.555 498.012C968.218 498.115 967.844 498.291 967.433 498.54L966.971 497.594C967.837 497.051 968.79 496.78 969.831 496.78ZM981.996 502.324V503.402H977.662V502.324H981.996ZM937.566 531.198C937.097 531.198 936.642 531.132 936.202 531C935.777 530.868 935.41 530.692 935.102 530.472V536.06H933.584V520.528H934.86L935.08 521.848C935.447 521.496 935.879 521.188 936.378 520.924C936.891 520.66 937.5 520.528 938.204 520.528C938.864 520.528 939.465 520.638 940.008 520.858C940.551 521.078 941.013 521.408 941.394 521.848C941.79 522.273 942.091 522.801 942.296 523.432C942.516 524.063 942.626 524.781 942.626 525.588C942.626 526.556 942.479 527.392 942.186 528.096C941.907 528.8 941.526 529.387 941.042 529.856C940.573 530.311 940.03 530.648 939.414 530.868C938.813 531.088 938.197 531.198 937.566 531.198ZM937.874 521.782C937.551 521.782 937.243 521.826 936.95 521.914C936.671 522.002 936.415 522.119 936.18 522.266C935.945 522.398 935.733 522.552 935.542 522.728C935.366 522.889 935.219 523.051 935.102 523.212V529.262C935.439 529.511 935.799 529.695 936.18 529.812C936.576 529.929 936.972 529.988 937.368 529.988C937.823 529.988 938.27 529.915 938.71 529.768C939.15 529.607 939.539 529.357 939.876 529.02C940.213 528.668 940.485 528.213 940.69 527.656C940.91 527.099 941.02 526.417 941.02 525.61C941.02 524.407 940.763 523.469 940.25 522.794C939.737 522.119 938.945 521.782 937.874 521.782ZM947.476 531V520.66H948.576L948.862 522.728C949.111 522.068 949.529 521.54 950.116 521.144C950.702 520.733 951.37 520.528 952.118 520.528C952.484 520.528 952.8 520.557 953.064 520.616C953.328 520.675 953.54 520.741 953.702 520.814L953.416 522.178C953.24 522.09 953.042 522.017 952.822 521.958C952.602 521.899 952.345 521.87 952.052 521.87C951.626 521.87 951.23 521.951 950.864 522.112C950.497 522.259 950.174 522.479 949.896 522.772C949.617 523.065 949.397 523.439 949.236 523.894C949.074 524.349 948.994 524.869 948.994 525.456V531H947.476ZM965.796 525.94H958.404V526.138C958.404 527.355 958.734 528.301 959.394 528.976C960.054 529.651 960.956 529.988 962.1 529.988C962.613 529.988 963.09 529.951 963.53 529.878C963.97 529.79 964.425 529.651 964.894 529.46L965.224 530.604C964.813 530.78 964.329 530.919 963.772 531.022C963.229 531.139 962.65 531.198 962.034 531.198C961.315 531.198 960.641 531.095 960.01 530.89C959.379 530.685 958.822 530.369 958.338 529.944C957.869 529.504 957.495 528.947 957.216 528.272C956.937 527.597 956.798 526.791 956.798 525.852C956.798 525.045 956.915 524.312 957.15 523.652C957.385 522.992 957.707 522.435 958.118 521.98C958.543 521.511 959.049 521.151 959.636 520.902C960.237 520.653 960.905 520.528 961.638 520.528C962.269 520.528 962.833 520.638 963.332 520.858C963.845 521.063 964.285 521.364 964.652 521.76C965.019 522.156 965.297 522.633 965.488 523.19C965.693 523.747 965.796 524.363 965.796 525.038V525.94ZM964.212 524.796C964.212 524.385 964.161 523.997 964.058 523.63C963.955 523.249 963.794 522.919 963.574 522.64C963.369 522.347 963.097 522.119 962.76 521.958C962.423 521.782 962.019 521.694 961.55 521.694C960.699 521.694 959.995 521.973 959.438 522.53C958.895 523.087 958.565 523.85 958.448 524.818L964.212 524.796ZM976.208 522.288C975.783 522.083 975.372 521.936 974.976 521.848C974.595 521.76 974.192 521.716 973.766 521.716C973.018 521.716 972.461 521.863 972.094 522.156C971.728 522.449 971.544 522.831 971.544 523.3C971.544 523.725 971.684 524.063 971.962 524.312C972.256 524.547 972.798 524.781 973.59 525.016L974.25 525.214C975.16 525.493 975.849 525.867 976.318 526.336C976.802 526.805 977.044 527.414 977.044 528.162C977.044 529.042 976.714 529.768 976.054 530.34C975.394 530.912 974.448 531.198 973.216 531.198C972.556 531.198 971.948 531.139 971.39 531.022C970.833 530.919 970.349 530.765 969.938 530.56L970.334 529.35C970.73 529.555 971.156 529.717 971.61 529.834C972.065 529.937 972.564 529.988 973.106 529.988C973.854 529.988 974.434 529.849 974.844 529.57C975.27 529.277 975.482 528.851 975.482 528.294C975.482 527.825 975.314 527.458 974.976 527.194C974.654 526.915 974.126 526.659 973.392 526.424L972.688 526.204C971.779 525.911 971.104 525.544 970.664 525.104C970.224 524.649 970.004 524.077 970.004 523.388C970.004 522.963 970.092 522.574 970.268 522.222C970.444 521.87 970.694 521.569 971.016 521.32C971.339 521.071 971.713 520.88 972.138 520.748C972.578 520.601 973.062 520.528 973.59 520.528C974.074 520.528 974.58 520.572 975.108 520.66C975.636 520.748 976.128 520.895 976.582 521.1L976.208 522.288ZM990.101 525.94H982.709V526.138C982.709 527.355 983.039 528.301 983.699 528.976C984.359 529.651 985.261 529.988 986.405 529.988C986.918 529.988 987.395 529.951 987.835 529.878C988.275 529.79 988.73 529.651 989.199 529.46L989.529 530.604C989.118 530.78 988.634 530.919 988.077 531.022C987.534 531.139 986.955 531.198 986.339 531.198C985.62 531.198 984.946 531.095 984.315 530.89C983.684 530.685 983.127 530.369 982.643 529.944C982.174 529.504 981.8 528.947 981.521 528.272C981.242 527.597 981.103 526.791 981.103 525.852C981.103 525.045 981.22 524.312 981.455 523.652C981.69 522.992 982.012 522.435 982.423 521.98C982.848 521.511 983.354 521.151 983.941 520.902C984.542 520.653 985.21 520.528 985.943 520.528C986.574 520.528 987.138 520.638 987.637 520.858C988.15 521.063 988.59 521.364 988.957 521.76C989.324 522.156 989.602 522.633 989.793 523.19C989.998 523.747 990.101 524.363 990.101 525.038V525.94ZM988.517 524.796C988.517 524.385 988.466 523.997 988.363 523.63C988.26 523.249 988.099 522.919 987.879 522.64C987.674 522.347 987.402 522.119 987.065 521.958C986.728 521.782 986.324 521.694 985.855 521.694C985.004 521.694 984.3 521.973 983.743 522.53C983.2 523.087 982.87 523.85 982.753 524.818L988.517 524.796ZM996.509 531H994.969V520.66H996.135L996.377 522.09C996.89 521.606 997.426 521.225 997.983 520.946C998.555 520.667 999.208 520.528 999.941 520.528C1001 520.528 1001.83 520.821 1002.43 521.408C1003.03 521.995 1003.33 522.816 1003.33 523.872V531H1001.79V524.158C1001.79 523.469 1001.61 522.904 1001.26 522.464C1000.91 522.009 1000.32 521.782 999.501 521.782C998.988 521.782 998.467 521.914 997.939 522.178C997.411 522.427 996.934 522.787 996.509 523.256V531ZM1014.27 521.826H1011.02V528.228C1011.02 528.829 1011.16 529.233 1011.43 529.438C1011.73 529.643 1012.11 529.746 1012.58 529.746C1012.94 529.746 1013.3 529.709 1013.66 529.636C1014.01 529.563 1014.32 529.482 1014.58 529.394L1014.82 530.56C1014.53 530.677 1014.16 530.78 1013.72 530.868C1013.28 530.956 1012.81 531 1012.29 531C1010.41 531 1009.48 530.142 1009.48 528.426V521.826H1007.78V520.66H1009.48V517.36H1011.02V520.66H1014.27V521.826ZM1024.84 522.288C1024.41 522.083 1024 521.936 1023.61 521.848C1023.23 521.76 1022.82 521.716 1022.4 521.716C1021.65 521.716 1021.09 521.863 1020.73 522.156C1020.36 522.449 1020.18 522.831 1020.18 523.3C1020.18 523.725 1020.31 524.063 1020.59 524.312C1020.89 524.547 1021.43 524.781 1022.22 525.016L1022.88 525.214C1023.79 525.493 1024.48 525.867 1024.95 526.336C1025.43 526.805 1025.68 527.414 1025.68 528.162C1025.68 529.042 1025.35 529.768 1024.69 530.34C1024.03 530.912 1023.08 531.198 1021.85 531.198C1021.19 531.198 1020.58 531.139 1020.02 531.022C1019.46 530.919 1018.98 530.765 1018.57 530.56L1018.97 529.35C1019.36 529.555 1019.79 529.717 1020.24 529.834C1020.7 529.937 1021.19 529.988 1021.74 529.988C1022.49 529.988 1023.06 529.849 1023.48 529.57C1023.9 529.277 1024.11 528.851 1024.11 528.294C1024.11 527.825 1023.94 527.458 1023.61 527.194C1023.28 526.915 1022.76 526.659 1022.02 526.424L1021.32 526.204C1020.41 525.911 1019.74 525.544 1019.3 525.104C1018.86 524.649 1018.64 524.077 1018.64 523.388C1018.64 522.963 1018.72 522.574 1018.9 522.222C1019.08 521.87 1019.32 521.569 1019.65 521.32C1019.97 521.071 1020.34 520.88 1020.77 520.748C1021.21 520.601 1021.69 520.528 1022.22 520.528C1022.71 520.528 1023.21 520.572 1023.74 520.66C1024.27 520.748 1024.76 520.895 1025.21 521.1L1024.84 522.288Z" fill="#A0A9F2"/>
<defs>
<filter id="filter0_f_1700_2" x="27.7609" y="121.761" width="815.697" height="689.759" filterUnits="userSpaceOnUse" color-interpolation-filters="sRGB">
<feFlood flood-opacity="0" result="BackgroundImageFix"/>
<feBlend mode="normal" in="SourceGraphic" in2="BackgroundImageFix" result="shape"/>
<feGaussianBlur stdDeviation="63.1" result="effect1_foregroundBlur_1700_2"/>
</filter>
<filter id="filter1_f_1700_2" x="27.7609" y="113.308" width="830.916" height="691.431" filterUnits="userSpaceOnUse" color-interpolation-filters="sRGB">
<feFlood flood-opacity="0" result="BackgroundImageFix"/>
<feBlend mode="normal" in="SourceGraphic" in2="BackgroundImageFix" result="shape"/>
<feGaussianBlur stdDeviation="63.1" result="effect1_foregroundBlur_1700_2"/>
</filter>
<filter id="filter2_f_1700_2" x="191.902" y="159.597" width="613.798" height="382.892" filterUnits="userSpaceOnUse" color-interpolation-filters="sRGB">
<feFlood flood-opacity="0" result="BackgroundImageFix"/>
<feBlend mode="normal" in="SourceGraphic" in2="BackgroundImageFix" result="shape"/>
<feGaussianBlur stdDeviation="63.1" result="effect1_foregroundBlur_1700_2"/>
</filter>
<filter id="filter3_f_1700_2" x="605.084" y="430.975" width="516.808" height="216.644" filterUnits="userSpaceOnUse" color-interpolation-filters="sRGB">
<feFlood flood-opacity="0" result="BackgroundImageFix"/>
<feBlend mode="normal" in="SourceGraphic" in2="BackgroundImageFix" result="shape"/>
<feGaussianBlur stdDeviation="33.45" result="effect1_foregroundBlur_1700_2"/>
</filter>
<linearGradient id="paint0_linear_1700_2" x1="1467.45" y1="672.63" x2="1958.88" y2="180.937" gradientUnits="userSpaceOnUse">
<stop stop-color="#5E6EF8"/>
<stop offset="1" stop-color="#5E6EF8" stop-opacity="0"/>
</linearGradient>
<linearGradient id="paint1_linear_1700_2" x1="75.0923" y1="718.633" x2="566.52" y2="226.94" gradientUnits="userSpaceOnUse">
<stop stop-color="#5E6EF8" stop-opacity="0"/>
<stop offset="1" stop-color="#5E6EF8"/>
</linearGradient>
<linearGradient id="paint2_linear_1700_2" x1="1207.25" y1="754.954" x2="391.891" y2="754.954" gradientUnits="userSpaceOnUse">
<stop stop-color="#5E6EF8"/>
<stop offset="1" stop-color="#5E6EF8" stop-opacity="0"/>
</linearGradient>
<linearGradient id="paint3_linear_1700_2" x1="824.227" y1="147.047" x2="1639.59" y2="147.047" gradientUnits="userSpaceOnUse">
<stop stop-color="#5E6EF8"/>
<stop offset="1" stop-color="#5E6EF8" stop-opacity="0"/>
</linearGradient>
<linearGradient id="paint4_linear_1700_2" x1="574.612" y1="10.1055" x2="1456.39" y2="892.36" gradientUnits="userSpaceOnUse">
<stop stop-color="#5E6EF8"/>
<stop offset="1" stop-color="#5E6EF8" stop-opacity="0"/>
</linearGradient>
<linearGradient id="paint5_linear_1700_2" x1="508.73" y1="562.187" x2="210.469" y2="562.187" gradientUnits="userSpaceOnUse">
<stop stop-color="#5E6EF8" stop-opacity="0"/>
<stop offset="1" stop-color="#5E6EF8" stop-opacity="0.36"/>
</linearGradient>
<linearGradient id="paint6_linear_1700_2" x1="288.334" y1="294.828" x2="609.244" y2="615.737" gradientUnits="userSpaceOnUse">
<stop stop-color="white" stop-opacity="0"/>
<stop offset="1" stop-color="white"/>
</linearGradient>
<linearGradient id="paint7_linear_1700_2" x1="393.875" y1="339.694" x2="692.136" y2="339.694" gradientUnits="userSpaceOnUse">
<stop stop-color="#5E6EF8" stop-opacity="0"/>
<stop offset="1" stop-color="#5E6EF8" stop-opacity="0.36"/>
</linearGradient>
<linearGradient id="paint8_linear_1700_2" x1="243.542" y1="606.906" x2="363.809" y2="697.707" gradientUnits="userSpaceOnUse">
<stop stop-color="#4455EB"/>
<stop offset="0.690819" stop-color="#4455EB" stop-opacity="0"/>
</linearGradient>
<linearGradient id="paint9_linear_1700_2" x1="727" y1="585" x2="676" y2="496" gradientUnits="userSpaceOnUse">
<stop stop-color="white"/>
<stop offset="1" stop-color="white" stop-opacity="0.37"/>
</linearGradient>
<clipPath id="clip0_1700_2">
<rect width="1971" height="902" fill="white" transform="translate(32)"/>
</clipPath>
<clipPath id="clip1_1700_2">
<rect width="902" height="902" fill="white"/>
</clipPath>
</defs>
</svg>
